<?xml version="1.0" encoding="utf-8"?>
<!-- Generator: Adobe Illustrator 17.1.0, SVG Export Plug-In . SVG Version: 6.00 Build 0)  -->
<!DOCTYPE svg PUBLIC "-//W3C//DTD SVG 1.1//EN" "http://www.w3.org/Graphics/SVG/1.1/DTD/svg11.dtd">
<svg version="1.1" id="airbnb_x5F_symbol_x5F_RGB" xmlns="http://www.w3.org/2000/svg" xmlns:xlink="http://www.w3.org/1999/xlink"
	 x="0px" y="0px" viewBox="0 0 283.5 292.2" enable-background="new 0 0 283.5 292.2" xml:space="preserve">
<rect x="0" y="0" fill="none" width="283.5" height="292.2"/>
<path fill="#FF5A5F" d="M209.5,177.3c-0.7-1.9-1.5-3.7-2.2-5.4c-1.2-2.6-2.4-5.2-3.5-7.8l-0.1-0.2c-10.4-22.6-21.6-45.5-33.2-68
	l-0.5-1c-1.2-2.3-2.4-4.7-3.7-7c-1.5-2.7-3.1-5.6-5.4-8.3c-5-5.8-11.8-9-19.3-9c-7.5,0-14.3,3.2-19.3,9c-2.3,2.7-3.9,5.6-5.4,8.3
	c-1.3,2.4-2.5,4.8-3.7,7.1l-0.5,0.9c-11.6,22.6-22.8,45.4-33.2,68l-0.2,0.3c-1.1,2.5-2.3,5.1-3.5,7.6c-0.7,1.7-1.5,3.5-2.2,5.4
	c-2,5.5-2.6,10.8-1.8,16.2c1.6,11.2,9.1,20.8,19.6,25.1c3.9,1.6,8,2.4,12.3,2.4c1.3,0,2.6-0.1,4-0.2c5-0.6,10.1-2.3,15.1-5.1
	c6.1-3.4,12.1-8.5,18.7-15.6c6.6,7.2,12.6,12.2,18.7,15.6c5,2.8,10.1,4.5,15.1,5.1c1.3,0.2,2.6,0.2,4,0.2c4.3,0,8.4-0.8,12.3-2.4
	c10.5-4.3,18-13.9,19.6-25.1C212,188.2,211.5,182.9,209.5,177.3z M141.6,185.2c-8.1-10.3-13.4-19.9-15.2-28
	c-0.8-3.4-0.9-6.5-0.5-9.2c0.4-2.4,1.2-4.5,2.4-6.3c2.8-4.1,7.8-6.5,13.3-6.5c5.5,0,10.5,2.4,13.3,6.5c1.2,1.8,2.1,3.9,2.4,6.3
	c0.4,2.7,0.2,5.9-0.5,9.2C155,165.3,149.8,174.8,141.6,185.2z M201.8,192.2c-1.1,7.8-6.4,14.6-13.7,17.5c-3.6,1.5-7.5,2-11.5,1.5
	c-3.8-0.4-7.6-1.7-11.5-3.9c-5.4-3.1-10.9-7.7-17.1-14.6c9.8-12.2,16-23.4,18.3-33.3c1-4.6,1.3-8.9,0.7-12.8
	c-0.6-3.8-1.9-7.3-4-10.3c-4.6-6.7-12.5-10.7-21.2-10.7c-8.7,0-16.6,4-21.2,10.7c-2.1,3-3.4,6.5-4,10.3c-0.6,3.9-0.4,8.3,0.7,12.8
	c2.3,10,8.4,21.2,18.3,33.3c-6.2,6.9-11.7,11.6-17.1,14.6c-3.9,2.2-7.7,3.5-11.5,3.9c-4,0.5-7.9-0.1-11.5-1.5
	c-7.3-3-12.6-9.7-13.7-17.5c-0.5-3.8-0.1-7.5,1.3-11.6c0.5-1.5,1.2-3,1.9-4.8c1.1-2.5,2.3-5,3.4-7.5l0.2-0.3
	c10.3-22.4,21.5-45.2,33-67.6l0.5-0.9c1.2-2.3,2.4-4.7,3.6-6.9c1.3-2.4,2.6-4.7,4.2-6.6c3.1-3.7,7.3-5.6,12-5.6
	c4.7,0,8.8,1.9,12,5.6c1.7,2,3,4.3,4.2,6.6c1.2,2.3,2.4,4.6,3.6,6.9l0.5,1c11.6,22.4,22.7,45.2,33,67.6l0.1,0.2
	c1.2,2.5,2.3,5.1,3.5,7.6c0.8,1.8,1.4,3.3,1.9,4.8C201.9,184.7,202.3,188.4,201.8,192.2z"/>
</svg>
