<?xml version="1.0" encoding="UTF-8" standalone="no"?>
<svg width="14px" height="14px" viewBox="0 0 14 14" version="1.1" xmlns="http://www.w3.org/2000/svg" xmlns:xlink="http://www.w3.org/1999/xlink">
    <!-- Generator: Sketch 3.8.2 (29753) - http://www.bohemiancoding.com/sketch -->
    <title>Slice 1</title>
    <desc>Created with Sketch.</desc>
    <defs></defs>
    <g id="Page-1" stroke="none" stroke-width="1" fill="none" fill-rule="evenodd">
        <g id="Icons/Miscellaneous/Remove" fill="#9B9B9B">
            <path d="M13.4309644,0.0976310729 C13.5611392,-0.032543691 13.7721942,-0.032543691 13.9023689,0.0976310729 C14.0325437,0.227805837 14.0325437,0.43886083 13.9023689,0.569035594 L7.47140452,7 L13.9023689,13.4309644 C14.0325437,13.5611392 14.0325437,13.7721942 13.9023689,13.9023689 C13.7721942,14.0325437 13.5611392,14.0325437 13.4309644,13.9023689 L7,7.47140452 L0.569035594,13.9023689 C0.43886083,14.0325437 0.227805837,14.0325437 0.0976310729,13.9023689 C-0.032543691,13.7721942 -0.032543691,13.5611392 0.0976310729,13.4309644 L6.52859548,7 L0.0976310729,0.569035594 C-0.032543691,0.43886083 -0.032543691,0.227805837 0.0976310729,0.0976310729 C0.227805837,-0.032543691 0.43886083,-0.032543691 0.569035594,0.0976310729 L7,6.52859548 L13.4309644,0.0976310729 Z" id="icon-remove"></path>
        </g>
    </g>
</svg>