<?xml version="1.0" encoding="UTF-8" standalone="no"?>
<svg width="21px" height="17px" viewBox="0 0 21 17" version="1.1" xmlns="http://www.w3.org/2000/svg" xmlns:xlink="http://www.w3.org/1999/xlink">
    <!-- Generator: Sketch 3.8.2 (29753) - http://www.bohemiancoding.com/sketch -->
    <title>icon-picture</title>
    <desc>Created with Sketch.</desc>
    <defs></defs>
    <g id="Page-1" stroke="none" stroke-width="1" fill="none" fill-rule="evenodd">
        <g id="Icons/Miscellaneous/Picture" fill="#565A5C">
            <path d="M15.75,6.0005 C15.0605,6.0005 14.5,5.4395 14.5,4.75 C14.5,4.0605 15.0605,3.5 15.75,3.5 C16.439,3.5 17,4.0605 17,4.75 C17,5.4395 16.439,6.0005 15.75,6.0005 L15.75,6.0005 Z M20,13.293 L15.3535,8.646 C15.2555,8.5485 15.128,8.4995 15,8.4995 C14.872,8.4995 14.744,8.5485 14.6465,8.646 L12,11.293 L7.8535,7.146 C7.658,6.9505 7.3415,6.9505 7.1465,7.146 L1,13.293 L1,1.2495 C1,1.1115 1.112,1 1.25,1 L19.75,1 C19.888,1 20,1.1115 20,1.2495 L20,13.293 Z M15.75,2.5 C14.509,2.5 13.5,3.5095 13.5,4.75 C13.5,5.991 14.509,7 15.75,7 C16.9905,7 18,5.991 18,4.75 C18,3.5095 16.9905,2.5 15.75,2.5 Z M20,15.7495 C20,15.887 19.888,15.9995 19.75,15.9995 L1.25,15.9995 C1.112,15.9995 1,15.887 1,15.7495 L1,14.707 L7.5,8.2065 L11.6465,12.3525 C11.8415,12.5485 12.158,12.5485 12.3535,12.3525 L15,9.7065 L20,14.707 L20,15.7495 L20,15.7495 Z M19.75,0 L1.25,0 C0.5605,0 0,0.56 0,1.2495 L0,15.7495 C0,16.439 0.5605,16.9995 1.25,16.9995 L19.75,16.9995 C20.439,16.9995 21,16.439 21,15.7495 L21,1.2495 C21,0.56 20.439,0 19.75,0 L19.75,0 Z" id="icon-picture"></path>
        </g>
    </g>
</svg>